<?xml version="1.0" encoding="utf-8"?>
<!-- Generator: Adobe Illustrator 23.0.1, SVG Export Plug-In . SVG Version: 6.00 Build 0)  -->
<svg version="1.1" id="Layer_1" xmlns="http://www.w3.org/2000/svg" xmlns:xlink="http://www.w3.org/1999/xlink" x="0px" y="0px"
	 viewBox="0 0 256 256" style="enable-background:new 0 0 256 256;" xml:space="preserve">
<style type="text/css">
	.st0{fill:none;}
	.st1{fill:#2E3192;}
	.st2{fill:#0071BC;}
</style>
<path class="st0" d="M64.82,191.18C80.95,207.43,103.3,217.5,128,217.5V128L64.82,191.18z"/>
<path class="st0" d="M39.01,128c0,0.17-0.01,0.33-0.01,0.5c0,24.45,9.86,46.59,25.82,62.68L128,128H39.01z"/>
<path class="st0" d="M128,217.5c24.7,0,47.05-10.07,63.18-26.32L128,128V217.5z"/>
<path class="st0" d="M190.68,65.32L128,128h88.99C216.86,103.5,206.82,81.34,190.68,65.32z"/>
<path class="st0" d="M191.18,191.18C207.14,175.09,217,152.95,217,128.5c0-0.17-0.01-0.33-0.01-0.5H128L191.18,191.18z"/>
<path class="st0" d="M65.32,65.32C49.18,81.34,39.14,103.5,39.01,128H128L65.32,65.32z"/>
<path class="st0" d="M190.68,65.32C174.59,49.36,152.45,39.5,128,39.5V128L190.68,65.32z"/>
<path class="st0" d="M128,39.5c-24.45,0-46.59,9.86-62.68,25.82L128,128V39.5z"/>
<path class="st1" d="M64.82,191.18l-27.33,27.33C60.65,241.67,92.65,256,128,256v-38.5C103.3,217.5,80.95,207.43,64.82,191.18z"/>
<path class="st2" d="M128,217.5V256c35.35,0,67.35-14.33,90.51-37.49l-27.33-27.33C175.05,207.43,152.7,217.5,128,217.5z"/>
<path class="st1" d="M216.99,128c0,0.17,0.01,0.33,0.01,0.5c0,24.45-9.86,46.59-25.82,62.68l27.33,27.33
	C241.67,195.35,256,163.35,256,128H216.99z"/>
<path class="st2" d="M39,128.5c0-0.17,0.01-0.33,0.01-0.5H0c0,35.35,14.33,67.35,37.49,90.51l27.33-27.33
	C48.86,175.09,39,152.95,39,128.5z"/>
<path class="st1" d="M65.32,65.32L37.49,37.49C14.33,60.65,0,92.65,0,128h39.01C39.14,103.5,49.18,81.34,65.32,65.32z"/>
<path class="st1" d="M190.68,65.32l27.83-27.83C195.35,14.33,163.35,0,128,0v39.5C152.45,39.5,174.59,49.36,190.68,65.32z"/>
<path class="st2" d="M216.99,128H256c0-35.35-14.33-67.35-37.49-90.51l-27.83,27.83C206.82,81.34,216.86,103.5,216.99,128z"/>
<path class="st2" d="M128,39.5V0C92.65,0,60.65,14.33,37.49,37.49l27.83,27.83C81.41,49.36,103.55,39.5,128,39.5z"/>
</svg>
