<?xml version="1.0" encoding="utf-8"?>
<!-- Generator: Adobe Illustrator 23.0.1, SVG Export Plug-In . SVG Version: 6.00 Build 0)  -->
<svg version="1.1" id="Layer_1" xmlns="http://www.w3.org/2000/svg" xmlns:xlink="http://www.w3.org/1999/xlink" x="0px" y="0px"
	 viewBox="0 0 256 256" style="enable-background:new 0 0 256 256;" xml:space="preserve">
<style type="text/css">
	.st0{fill:none;}
	.st1{fill:#0071BC;}
	.st2{fill:#2E3192;}
</style>
<path class="st0" d="M128,173c24.85,0,45-20.15,45-45h-45V173z"/>
<path class="st0" d="M83,128c0,24.85,20.15,45,45,45v-45H83z"/>
<path class="st0" d="M128,83v45h45C173,103.15,152.85,83,128,83z"/>
<path class="st0" d="M128,83c-24.85,0-45,20.15-45,45h45V83z"/>
<path class="st1" d="M173,128c0,24.85-20.15,45-45,45v44c49.15,0,89-39.85,89-89H173z"/>
<path class="st2" d="M173,128h44c0-49.15-39.85-89-89-89v44C152.85,83,173,103.15,173,128z"/>
<path class="st2" d="M83,128H39c0,49.15,39.85,89,89,89v-44C103.15,173,83,152.85,83,128z"/>
<path class="st1" d="M128,83V39c-49.15,0-89,39.85-89,89h44C83,103.15,103.15,83,128,83z"/>
</svg>
