<?xml version="1.0" encoding="utf-8"?>
<!-- Generator: Adobe Illustrator 23.0.1, SVG Export Plug-In . SVG Version: 6.00 Build 0)  -->
<svg version="1.1" id="Layer_1" xmlns="http://www.w3.org/2000/svg" xmlns:xlink="http://www.w3.org/1999/xlink" x="0px" y="0px"
	 viewBox="0 0 256 256" style="enable-background:new 0 0 256 256;" xml:space="preserve">
<style type="text/css">
	.st0{fill:none;}
	.st1{fill:#FFFFFF;}
</style>
<path class="st0" d="M64.32,190.68C80.45,206.93,102.8,217,127.5,217v-89.5L64.32,190.68z"/>
<path class="st0" d="M38.51,127.5c0,0.17-0.01,0.33-0.01,0.5c0,24.45,9.86,46.59,25.82,62.68l63.18-63.18H38.51z"/>
<path class="st0" d="M127.5,217c24.7,0,47.05-10.07,63.18-26.32L127.5,127.5V217z"/>
<path class="st0" d="M190.18,64.82L127.5,127.5h88.99C216.36,103,206.32,80.84,190.18,64.82z"/>
<path class="st0" d="M190.68,190.68c15.96-16.09,25.82-38.23,25.82-62.68c0-0.17-0.01-0.33-0.01-0.5H127.5L190.68,190.68z"/>
<path class="st0" d="M64.82,64.82C48.68,80.84,38.64,103,38.51,127.5h88.99L64.82,64.82z"/>
<path class="st0" d="M190.18,64.82C174.09,48.86,151.95,39,127.5,39v88.5L190.18,64.82z"/>
<path class="st0" d="M127.5,39c-24.45,0-46.59,9.86-62.68,25.82l62.68,62.68V39z"/>
<path class="st1" d="M64.32,190.68l-27.33,27.33c23.16,23.16,55.16,37.49,90.51,37.49V217C102.8,217,80.45,206.93,64.32,190.68z"/>
<path class="st1" d="M216.49,127.5c0,0.17,0.01,0.33,0.01,0.5c0,24.45-9.86,46.59-25.82,62.68l27.33,27.33
	c23.16-23.16,37.49-55.16,37.49-90.51H216.49z"/>
<path class="st1" d="M64.82,64.82L36.99,36.99C13.83,60.15-0.5,92.15-0.5,127.5h39.01C38.64,103,48.68,80.84,64.82,64.82z"/>
<path class="st1" d="M190.18,64.82l27.83-27.83C194.85,13.83,162.85-0.5,127.5-0.5V39C151.95,39,174.09,48.86,190.18,64.82z"/>
</svg>
