<?xml version="1.0" encoding="utf-8"?>
<!-- Generator: Adobe Illustrator 23.0.1, SVG Export Plug-In . SVG Version: 6.00 Build 0)  -->
<svg version="1.1" id="Layer_1" xmlns="http://www.w3.org/2000/svg" xmlns:xlink="http://www.w3.org/1999/xlink" x="0px" y="0px"
	 viewBox="0 0 256 256" style="enable-background:new 0 0 256 256;" xml:space="preserve">
<style type="text/css">
	.st0{fill:none;}
	.st1{fill:#FFFFFF;}
</style>
<path class="st0" d="M64.32,190.68C80.45,206.93,102.8,217,127.5,217v-89.5L64.32,190.68z"/>
<path class="st0" d="M38.51,127.5c0,0.17-0.01,0.33-0.01,0.5c0,24.45,9.86,46.59,25.82,62.68l63.18-63.18H38.51z"/>
<path class="st0" d="M127.5,217c24.7,0,47.05-10.07,63.18-26.32L127.5,127.5V217z"/>
<path class="st0" d="M190.18,64.82L127.5,127.5h88.99C216.36,103,206.32,80.84,190.18,64.82z"/>
<path class="st0" d="M190.68,190.68c15.96-16.09,25.82-38.23,25.82-62.68c0-0.17-0.01-0.33-0.01-0.5H127.5L190.68,190.68z"/>
<path class="st0" d="M64.82,64.82C48.68,80.84,38.64,103,38.51,127.5h88.99L64.82,64.82z"/>
<path class="st0" d="M190.18,64.82C174.09,48.86,151.95,39,127.5,39v88.5L190.18,64.82z"/>
<path class="st0" d="M127.5,39c-24.45,0-46.59,9.86-62.68,25.82l62.68,62.68V39z"/>
<path class="st1" d="M127.5,217v38.5c35.35,0,67.35-14.33,90.51-37.49l-27.33-27.33C174.55,206.93,152.2,217,127.5,217z"/>
<path class="st1" d="M38.5,128c0-0.17,0.01-0.33,0.01-0.5H-0.5c0,35.35,14.33,67.35,37.49,90.51l27.33-27.33
	C48.36,174.59,38.5,152.45,38.5,128z"/>
<path class="st1" d="M216.49,127.5h39.01c0-35.35-14.33-67.35-37.49-90.51l-27.83,27.83C206.32,80.84,216.36,103,216.49,127.5z"/>
<path class="st1" d="M127.5,39V-0.5c-35.35,0-67.35,14.33-90.51,37.49l27.83,27.83C80.91,48.86,103.05,39,127.5,39z"/>
</svg>
