<?xml version="1.0" encoding="utf-8"?>
<!-- Generator: Adobe Illustrator 23.0.1, SVG Export Plug-In . SVG Version: 6.00 Build 0)  -->
<svg version="1.1" id="Layer_1" xmlns="http://www.w3.org/2000/svg" xmlns:xlink="http://www.w3.org/1999/xlink" x="0px" y="0px"
	 viewBox="0 0 256 256" style="enable-background:new 0 0 256 256;" xml:space="preserve">
<style type="text/css">
	.st0{fill:#FFFFFF;}
</style>
<path class="st0" d="M45.39,211.55c21.14,20.9,50.17,33.84,82.22,33.95l0.04-17.01c-27.3-0.23-51.98-11.39-69.9-29.32L45.39,211.55z
	"/>
<path class="st0" d="M44.97,44.86c-21.24,21.22-34.4,50.52-34.47,82.91h18.01c0.2-27.35,11.37-52.08,29.33-70.02L44.97,44.86z"/>
<path class="st0" d="M199.06,57.64l12.36-12.38c-21.24-21.42-50.67-34.7-83.21-34.76l-0.05,18c0.11,0,0.22,0,0.34,0
	C156.04,28.5,180.97,39.63,199.06,57.64z"/>
<path class="st0" d="M245.5,128c0-0.08,0-0.16,0-0.23h-17.01c0,0.24,0.01,0.49,0.01,0.73c0,27.65-11.22,52.67-29.36,70.78
	L211,211.16C232.32,189.89,245.5,160.48,245.5,128z"/>
</svg>
