<?xml version="1.0" encoding="utf-8"?>
<!-- Generator: Adobe Illustrator 23.0.1, SVG Export Plug-In . SVG Version: 6.00 Build 0)  -->
<svg version="1.1" id="Layer_1" xmlns="http://www.w3.org/2000/svg" xmlns:xlink="http://www.w3.org/1999/xlink" x="0px" y="0px"
	 viewBox="0 0 256 256" style="enable-background:new 0 0 256 256;" xml:space="preserve">
<style type="text/css">
	.st0{fill:#FFFFFF;}
</style>
<path class="st0" d="M28.51,127.77H10.5c0,0.08,0,0.16,0,0.23c0,32.69,13.35,62.25,34.89,83.55l12.36-12.38
	C39.68,181.08,28.5,156.1,28.5,128.5C28.5,128.25,28.51,128.01,28.51,127.77z"/>
<path class="st0" d="M128.16,28.5l0.05-18c-0.07,0-0.14,0-0.21,0c-32.42,0-61.77,13.13-83.03,34.36l12.87,12.89
	C75.86,39.75,100.71,28.59,128.16,28.5z"/>
<path class="st0" d="M245.5,127.77c-0.06-32.18-13.07-61.32-34.08-82.51l-12.36,12.38c18.02,17.95,29.24,42.73,29.43,70.12h17.01
	V127.77z"/>
<path class="st0" d="M128.5,228.5c-0.28,0-0.56-0.01-0.84-0.01l-0.04,17.01c0.13,0,0.26,0,0.39,0c32.41,0,61.75-13.12,83.01-34.34
	l-11.86-11.88C181.05,217.33,156.08,228.5,128.5,228.5z"/>
</svg>
