<?xml version="1.0" encoding="utf-8"?>
<!-- Generator: Adobe Illustrator 23.0.1, SVG Export Plug-In . SVG Version: 6.00 Build 0)  -->
<svg version="1.1" id="Layer_1" xmlns="http://www.w3.org/2000/svg" xmlns:xlink="http://www.w3.org/1999/xlink" x="0px" y="0px"
	 viewBox="0 0 256 256" style="enable-background:new 0 0 256 256;" xml:space="preserve">
<style type="text/css">
	.st0{fill:#B3B3B3;}
	.st1{fill:#534741;}
</style>
<path class="st0" d="M28.51,127.77H10.5c0,0.08,0,0.16,0,0.23c0,32.69,13.35,62.25,34.89,83.55l12.36-12.38
	C39.68,181.08,28.5,156.1,28.5,128.5C28.5,128.25,28.51,128.01,28.51,127.77z"/>
<path class="st1" d="M45.39,211.55c21.14,20.9,50.17,33.84,82.22,33.95l0.04-17.01c-27.3-0.23-51.98-11.39-69.9-29.32L45.39,211.55z
	"/>
<path class="st1" d="M44.97,44.86C23.73,66.08,10.57,95.38,10.5,127.77h18.01c0.2-27.35,11.37-52.08,29.33-70.02L44.97,44.86z"/>
<path class="st0" d="M128.16,28.5l0.05-18c-0.07,0-0.14,0-0.21,0c-32.42,0-61.77,13.13-83.03,34.36l12.87,12.89
	C75.86,39.75,100.71,28.59,128.16,28.5z"/>
<path class="st1" d="M199.06,57.64l12.36-12.38c-21.24-21.42-50.67-34.7-83.21-34.76l-0.05,18c0.11,0,0.22,0,0.34,0
	C156.04,28.5,180.97,39.63,199.06,57.64z"/>
<path class="st0" d="M245.5,127.77c-0.06-32.18-13.07-61.32-34.08-82.51l-12.36,12.38c18.02,17.95,29.24,42.73,29.43,70.12H245.5z"
	/>
<path class="st0" d="M128.5,228.5c-0.28,0-0.56-0.01-0.84-0.01l-0.04,17.01c0.13,0,0.26,0,0.39,0c32.41,0,61.75-13.12,83.01-34.34
	l-11.86-11.88C181.05,217.33,156.08,228.5,128.5,228.5z"/>
<path class="st1" d="M245.5,128c0-0.08,0-0.16,0-0.23h-17.01c0,0.24,0.01,0.49,0.01,0.73c0,27.65-11.22,52.67-29.36,70.78
	l11.86,11.88C232.32,189.89,245.5,160.48,245.5,128z"/>
</svg>
